<?xml version="1.0" encoding="utf-8"?>
<!-- Generator: Adobe Illustrator 23.0.5, SVG Export Plug-In . SVG Version: 6.00 Build 0)  -->
<svg version="1.1" id="Layer_1" xmlns="http://www.w3.org/2000/svg" xmlns:xlink="http://www.w3.org/1999/xlink" x="0px" y="0px"
	 viewBox="0 0 454.8 415.6" style="enable-background:new 0 0 454.8 415.6;" xml:space="preserve">
<style type="text/css">
	.st0{fill:#DADADA;}
	.st1{fill:#7E7E7E;}
	.st2{fill:#7F7F7F;}
</style>
<path class="st0" d="M454.7,184.8c-0.1,0-0.2,0-0.2,0c-0.3-0.3-0.3-0.7-0.3-1.1c0-0.4,0-0.8,0-1.2c0-60,0-119.9,0-179.9
	c0-0.8-0.2-1.7,0.4-2.4c0.1,0,0.1,0,0.2,0C454.7,61.8,454.7,123.3,454.7,184.8z"/>
<path class="st1" d="M454.5,0.3c0,0.7,0,1.4,0,2.1c0,60.4,0,120.8,0,181.2c0,0.4,0,0.8,0,1.2c-1,0.4-1.7-0.4-2.3-0.9
	c-1.8-1.6-3.5-3.2-5.1-4.9c-8.1-8-16.5-15.6-24.5-23.7c-1.6-1.6-3.5-2.8-4.9-4.6c-0.9-1.1-1.8-2.4-2.4-3.7
	c-2.2-4.6-4.6-9.1-6.8-13.8c-2-4.4-5.1-8.1-8.2-11.8c-5.2-6-10.4-12-15.7-17.8c-5.4-5.9-10.8-11.8-16.3-17.7
	c-3.8-4.1-7.6-8.1-11.3-12.2c-10.7-11.8-21.5-23.4-32.6-34.8c-3.8-4-7.7-7.9-11.3-12.1c-3.1-3.6-6.6-6.7-9.7-10.3
	c-2.8-3.2-5.6-6.3-8.5-9.4c-1.1-1.2-2.4-2.3-3.6-3.4c-1-0.9-1.8-2-2.6-3.1c-0.2-0.3-0.4-0.6-0.3-0.9c0.1-0.4,0.5-0.3,0.8-0.3
	c3.2,0,6.4,0,9.6,0c0.5,0,1,0.2,1.4,0.5c3.3,2.1,6.2,4.6,9.2,6.9c3.6,2.8,7.2,5.5,10.8,8.3c0.2,0.1,0.3,0.2,0.6,0.2
	c-1.3-1.7-2.7-3.5-4-5.2c-2.2-2.9-4.5-5.9-6.7-8.8c-0.1-0.1-0.2-0.2-0.3-0.3c-0.3-0.4-0.6-0.8-0.4-1.3s0.8-0.2,1.2-0.2
	c38.1,0,76.1,0,114.2,0c9.3,0,18.6,0,28,0C453.4-0.6,454.2-0.7,454.5,0.3z"/>
<path class="st1" d="M131,105.6c1.8,2,3.6,4,5.5,6c0.1,0.1,0.3,0.3,0.4,0.4c0.4,0.5,0.7,1.1,0.3,1.5s-1,0-1.4-0.3
	c-3.9-3.4-7.8-6.8-11.7-10.3c-2.9-2.6-5.8-5.4-8.6-8.1c-1-0.9-2-1.7-3.2-2.3c-5.1-2.8-9.3-6.7-13.1-11C93,74.7,86.8,67.9,80.7,61.1
	C76.8,56.8,73,52.5,69,48.2c-4.1-4.4-9-7.9-13.3-12c-3.9-3.7-7.9-7.3-11.8-11c-8.3-7.8-16.3-15.9-24.4-24C19.3,1,19.1,0.8,19,0.7
	c-0.3-0.3-0.5-0.7-0.3-1.1s0.6-0.2,1-0.3c2.1-0.4,3.5,0.9,4.9,2.1c3.9,3.5,7.8,6.9,11.5,10.5c-0.7-0.8-1.4-1.7-2.2-2.5
	c-2.5-2.4-4.9-5-7.2-7.6c-0.2-0.2-0.4-0.5-0.6-0.7c-0.4-0.4-0.6-0.9-0.4-1.4s0.8-0.2,1.2-0.2c5.5,0,11,0,16.4,0c1.3,0,2.4,0.3,3.4,1
	c3.2,2,6.3,4.3,9.4,6.4c4.5,3.1,9,6.3,13.6,9.5c0.3,0.2,0.5,0.3,0.9,0.3c-1.5-1.3-2.9-2.6-4.4-3.9c-2.9-2.6-5.9-5.1-8.9-7.7
	c-0.6-0.5-1.2-1.1-1.5-1.8c-0.3-0.6-0.1-1,0.6-1c0.8,0,1.5,0.4,2.1,0.9c6.6,4.6,12.8,9.6,18.9,14.7c6.9,5.8,13.7,11.7,20.4,17.7
	c1.9,1.7,4.2,3,6.2,4.8c4.5,4.1,8.1,8.9,12.2,13.3c6.6,7.2,12.7,15,19.6,22c5,5.1,10.4,9.9,15.5,14.9c5.3,5.1,10.4,10.4,15.4,15.7
	c3.3,3.5,6.1,7.4,9.5,10.7c0.1,0.1,0.2,0.3,0.3,0.4c-0.6,0.4-0.9-0.1-1.2-0.3c-2.9-2.5-5.8-5-8.7-7.5c-0.7-0.6-1.6-0.8-2.4-1.6
	c1.7,3.3,4.1,5.7,6.4,8.2c9,10.3,18,20.6,27.1,30.8c0.6,0.7,1.2,1.3,2,1.7c0.9,0.5,1.4,1.3,1.7,2.3c0.3,0.7,0,1-0.7,1
	c-0.5,0-0.8-0.2-1.2-0.5c-5.5-3.7-11.1-7.2-16.6-11c-9.9-6.8-19.8-13.6-29.7-20.3c-7.2-4.8-14.3-9.7-21.5-14.6
	c-0.2-0.1-0.4-0.3-0.6-0.4C131.2,105.5,131.1,105.5,131,105.6z"/>
<path class="st2" d="M393.7,207.8c-1.8-2.9-4-5.5-6.1-8.2c-5.9-7.4-11.7-15-17.7-22.3c-4.2-5.2-8.7-10.2-13-15.3
	c-3.4-4-6.8-8.1-10.3-12.1c-2.1-2.4-4.2-4.9-6.2-7.4c-0.4-0.5-1.1-1.1-0.4-1.7c0.6-0.5,1.3,0,1.8,0.4c12.2,9.8,24.6,19.4,36.5,29.6
	c8.3,7.1,16.8,13.9,25.2,20.9c4.6,3.8,9.1,7.6,13.9,11c6.2,4.4,11.9,9.4,17.9,14c0,0,0.1,0,0.4,0.1c-0.4-0.4-0.6-0.6-0.9-0.9
	c-5-5-9.9-9.9-14.9-14.9c-1.1-1.1-1.6-2.7-2.8-3.7c-0.2-0.1-0.2-0.3-0.1-0.5s0.4-0.2,0.6-0.1c0.1,0,0.1,0.1,0.2,0.1
	c3.7,2.8,7.8,5.1,10.9,8.8c2.6,3.1,5.9,5.7,8.8,8.5c5.5,5.2,11,10.6,16.4,16c0.5,0.5,0.7,0.9,0.7,1.6c0,6.3,0,12.5,0,18.8
	c0,0.3,0.1,0.7-0.2,0.9c-0.4,0.2-0.8,0-1.1-0.3c-0.5-0.4-0.9-0.9-1.3-1.3c-6.2-6.2-12.3-12.4-18.6-18.5
	c-8.8-8.5-17.7-16.8-27.3-24.4c-0.5-0.4-0.8-0.9-1.6-1.2c0.4,0.8,0.9,1.2,1.3,1.7c9.2,10.5,18.4,21.1,27.7,31.6
	c6,6.8,12,13.5,18.2,20.2c1.9,2.1,3,4.2,2.8,7.1c-0.2,5.5-0.1,11.1-0.1,16.7c-0.5,0-0.5-0.3-0.7-0.6c-8.6-10.8-17.1-21.5-25.7-32.3
	c-2.6-3.3-5.7-6.1-8.7-9.1c-5-4.9-9.7-10.1-14.5-15.3c-6.4-6.9-12.7-13.9-18.9-21c-6.7-7.6-13.4-15.3-20.1-23
	c-0.4-0.4-0.8-0.8-1.2-1.2c-0.3-0.3-0.5-0.6-0.3-0.9c0.2-0.3,0.7-0.3,1-0.1c0.4,0.2,0.8,0.4,1.1,0.7c4,3.7,8.3,7.2,12,11.3
	c4.8,5.4,10.1,10.4,14.9,16C393.4,207.5,393.6,207.6,393.7,207.8z"/>
<path class="st1" d="M176.9-0.6c0.5,0,0.9,0,1.3,0c8,0,16.1,0,24.1,0c1.7,0,3.2,0.4,4.6,1.3c3.5,2.4,7.3,4.3,11,6.3
	c2.9,1.6,5.9,3.1,8.9,4.6c2.2,1.1,4.3,2.5,6.1,4.2c5.7,5.6,11.7,11,17.4,16.7c1.7,1.7,2.7,3.9,4.3,5.6c1.6,1.6,3,3.4,4.5,5.1
	c0.5,0.6,1,1.2,1.2,1.9s0.1,1.1-0.8,0.9c-1.1-0.2-2.1-0.7-3-1.3c-4.5-3-8.7-6.4-12.7-10c-0.9-0.8-2-1.6-2.7-2.6
	c-2-2.4-4.6-3.2-7.5-3.8c-7.3-1.5-14.7-3.2-22-4.8c-2.2-0.5-4.3-1.4-5.8-3.1c-3.7-4-8.4-6.4-13.5-8.3C185.9,9.8,181,5.5,177.2,0
	C177.1-0.2,177.1-0.3,176.9-0.6z"/>
<path class="st2" d="M274.8,122.6c0.5,0,0.8,0.3,1.1,0.6c5.1,4.2,9.6,9,14.3,13.7c0.7,0.7,1.5,1.5,2.4,2c0.3,0.2,0.6,0.4,0.7,0.6
	c0.4,1.3,1.6,1.8,2.5,2.4c0.6,0.4,1.1,0.9,1.5,1.5c3.1,4.6,7.1,8.4,10.7,12.6c10,11.8,20.4,23.2,29.9,35.3c0.3,0.4,1.1,1,0.7,1.3
	c-0.5,0.5-0.9-0.4-1.3-0.8c-2.9-2.8-5.7-5.9-8.8-8.5c-6.4-5.4-11.6-12.1-17.5-18c-0.8-0.8-1.1-2.1-2-3c-1.9-1.9-3.4-4.1-5.7-5.6
	c-0.5-0.3-1-0.9-1.3-1.4c-2.8-4-6.3-7.4-9.5-11.1c-3.3-3.9-6.7-7.7-10-11.5c-2.5-2.9-5-5.9-7.6-8.9c-0.2-0.2-0.3-0.4-0.5-0.6
	c-0.1-0.1-0.3-0.3-0.1-0.5C274.5,122.6,274.7,122.6,274.8,122.6z"/>
</svg>
