<?xml version="1.0" encoding="utf-8"?>
<!-- Generator: Adobe Illustrator 26.0.1, SVG Export Plug-In . SVG Version: 6.00 Build 0)  -->
<svg version="1.1" id="Layer_1" xmlns="http://www.w3.org/2000/svg" xmlns:xlink="http://www.w3.org/1999/xlink" x="0px" y="0px"
	 viewBox="0 0 2660 588" style="enable-background:new 0 0 2660 588;" xml:space="preserve">
<style type="text/css">
	.st0{fill:url(#SVGID_1_);}
	.st1{fill:url(#SVGID_00000096020725579319358510000000507377671013995683_);}
	.st2{fill:url(#SVGID_00000168100752534385005750000015880651043521238960_);}
	.st3{fill:url(#SVGID_00000133495046148331042800000001085566072232430520_);}
	.st4{fill:url(#SVGID_00000054242680519759586000000015319757068478811578_);}
	.st5{fill:url(#SVGID_00000027607021496413540930000003011014040079182992_);}
	.st6{fill:url(#SVGID_00000140005485896312469390000000519150125865712532_);}
	.st7{fill:url(#SVGID_00000061430695254885606680000001722499493671837850_);}
	.st8{fill:url(#SVGID_00000155146570069595012930000009689733217910024596_);}
	.st9{fill:url(#SVGID_00000153705453475402877430000016533934696731935397_);}
	.st10{fill:url(#SVGID_00000164516209443419575890000013688970242889224869_);}
</style>
<g>
	<linearGradient id="SVGID_1_" gradientUnits="userSpaceOnUse" x1="133.5764" y1="207.0721" x2="133.5764" y2="438.7064">
		<stop  offset="0" style="stop-color:#F2EDE6"/>
		<stop  offset="1" style="stop-color:#1F1D1D"/>
	</linearGradient>
	<path class="st0" d="M133.2,457.2c-20.6,0-38.8-2.8-54.5-8.4c-15.7-5.6-28.7-13.9-38.9-24.9c-10.2-11-17.5-24.6-21.9-40.9
		l61.7-24.8c4.9,13.6,12.3,23.8,22.1,30.6c9.8,6.8,21.6,10.2,35.5,10.2c14.9,0,26.3-2.9,34.3-8.7c7.9-5.8,11.9-13.9,11.9-24.3v-14.9
		c0-8.4-2.7-15-8-19.9c-5.3-4.8-12.3-8.8-21.1-11.8c-8.7-3.1-18.2-6-28.5-8.7c-11.5-3.2-23-6.7-34.6-10.6c-11.6-3.8-22.2-9-32-15.5
		c-9.7-6.5-17.5-15.1-23.5-25.9c-5.9-10.8-8.9-24.7-8.9-41.7v-9c0-29.1,9.9-51.6,29.6-67.6c19.7-16,47.7-24,84.1-24
		c27.4,0,50,5.9,67.9,17.8c17.8,11.9,30,29.7,36.4,53.4L186,213.2c-4.7-13.2-11.3-23-19.7-29.4c-8.4-6.4-18.3-9.6-29.8-9.6
		c-14,0-24.9,2.7-32.5,8c-7.6,5.4-11.4,12.8-11.4,22.3v11.2c0,9.5,3,16.9,8.9,22.2c5.9,5.3,13.7,9.5,23.5,12.6
		c9.7,3.1,20.1,6.3,31.1,9.5c11.3,3.4,22.5,7,33.4,10.8c10.9,3.8,20.9,9,29.9,15.5c9,6.5,16.3,15,21.8,25.4
		c5.5,10.4,8.2,23.5,8.2,39.3v14.5c0,28.9-10.1,51.5-30.4,67.6C198.7,449.2,170.1,457.2,133.2,457.2z"/>
	
		<linearGradient id="SVGID_00000010295084007719092130000009596797980901197242_" gradientUnits="userSpaceOnUse" x1="410.2437" y1="202.3764" x2="410.2437" y2="425.6382">
		<stop  offset="0" style="stop-color:#F2EDE6"/>
		<stop  offset="1" style="stop-color:#1F1D1D"/>
	</linearGradient>
	<path style="fill:url(#SVGID_00000010295084007719092130000009596797980901197242_);" d="M298.6,453.8V120h66v333.8H298.6z
		 M329.1,324.3v-57.6h91.6c10,0,18.1-3.1,24.2-9.3c6.2-6.2,9.3-14.5,9.3-24.9v-19.7c0-10.9-3-19.4-9.1-25.7
		c-6.1-6.3-14.2-9.4-24.4-9.4h-91.6V120h91.3c21,0,39,3.6,54,10.7c15.1,7.1,26.7,17.3,35,30.5c8.3,13.2,12.4,29,12.4,47.2v28.5
		c0,18.1-4.1,33.6-12.3,46.7c-8.2,13.1-19.9,23.1-35.1,30.2c-15.2,7-33.2,10.6-54,10.6H329.1z"/>
	
		<linearGradient id="SVGID_00000015320567181669066670000003537803186573787042_" gradientUnits="userSpaceOnUse" x1="660.9062" y1="174.2025" x2="660.9062" y2="447.1908">
		<stop  offset="0" style="stop-color:#F2EDE6"/>
		<stop  offset="1" style="stop-color:#1F1D1D"/>
	</linearGradient>
	<path style="fill:url(#SVGID_00000015320567181669066670000003537803186573787042_);" d="M524.4,453.8L638.8,120H683l114.4,333.8
		h-68.5l-68-223.1l-68,223.1H524.4z M588.1,401.2v-56.9h147.1v56.9H588.1z"/>
	
		<linearGradient id="SVGID_00000021798069576293566220000006625886306281603722_" gradientUnits="userSpaceOnUse" x1="962.8169" y1="167.1591" x2="962.8169" y2="530.9745">
		<stop  offset="0" style="stop-color:#F2EDE6"/>
		<stop  offset="1" style="stop-color:#1F1D1D"/>
	</linearGradient>
	<path style="fill:url(#SVGID_00000021798069576293566220000006625886306281603722_);" d="M881.4,347l55.3-227h52l55.3,227l33-227
		h67.7l-66.2,333.8h-62.7l-51.5-224.3l-54.5,224.3h-62.9l-66-333.8h67.7L881.4,347z"/>
	
		<linearGradient id="SVGID_00000105387428684413526590000012010487545759399351_" gradientUnits="userSpaceOnUse" x1="1297.4563" y1="138.8704" x2="1297.4563" y2="431.9804">
		<stop  offset="0" style="stop-color:#F2EDE6"/>
		<stop  offset="1" style="stop-color:#1F1D1D"/>
	</linearGradient>
	<path style="fill:url(#SVGID_00000105387428684413526590000012010487545759399351_);" d="M1180.2,453.5V120h67l112.1,239l-6.6,7.6
		V120h61.9v333.5h-67.7l-111.1-230.7l6.1-7.6v238.3H1180.2z"/>
	
		<linearGradient id="SVGID_00000121968181588700618020000013617222035012634754_" gradientUnits="userSpaceOnUse" x1="1589.7261" y1="138.9852" x2="1589.7261" y2="443.6818">
		<stop  offset="0" style="stop-color:#F2EDE6"/>
		<stop  offset="1" style="stop-color:#1F1D1D"/>
	</linearGradient>
	<path style="fill:url(#SVGID_00000121968181588700618020000013617222035012634754_);" d="M1478.1,453.8V120h66v333.8H1478.1z
		 M1508.5,324.3v-57.6h91.6c10,0,18.1-3.1,24.2-9.3c6.2-6.2,9.3-14.5,9.3-24.9v-19.7c0-10.9-3-19.4-9.1-25.7
		c-6.1-6.3-14.2-9.4-24.4-9.4h-91.6V120h91.3c21,0,39,3.6,54,10.7c15.1,7.1,26.7,17.3,35,30.5c8.3,13.2,12.4,29,12.4,47.2v28.5
		c0,18.1-4.1,33.6-12.3,46.7c-8.2,13.1-19.9,23.1-35.1,30.2c-15.2,7-33.2,10.6-54,10.6H1508.5z"/>
	
		<linearGradient id="SVGID_00000031887117447653399500000002450578550209771408_" gradientUnits="userSpaceOnUse" x1="1858.9087" y1="134.2895" x2="1858.9087" y2="438.9758">
		<stop  offset="0" style="stop-color:#F2EDE6"/>
		<stop  offset="1" style="stop-color:#1F1D1D"/>
	</linearGradient>
	<path style="fill:url(#SVGID_00000031887117447653399500000002450578550209771408_);" d="M1858.9,457.2c-23.3,0-43.6-4.1-60.8-12.2
		c-17.2-8.1-30.4-19.7-39.7-34.9c-9.3-15.1-14-33-14-53.5V217.1c0-20.7,4.6-38.5,14-53.6c9.3-15.1,22.5-26.7,39.7-34.8
		c17.2-8.1,37.4-12.2,60.8-12.2c23.3,0,43.6,4.1,60.8,12.2c17.2,8.1,30.4,19.7,39.7,34.8c9.3,15.1,14,32.9,14,53.6v139.6
		c0,20.5-4.7,38.3-14,53.5c-9.3,15.2-22.5,26.8-39.7,34.9C1902.5,453.2,1882.2,457.2,1858.9,457.2z M1858.9,397.3
		c14.4,0,25.8-3.9,34.1-11.8c8.4-7.9,12.6-18.6,12.6-32V220.1c0-13.5-4.2-24.1-12.6-32c-8.4-7.9-19.8-11.8-34.1-11.8
		c-14.2,0-25.5,3.9-34,11.8c-8.5,7.9-12.7,18.6-12.7,32v133.4c0,13.5,4.2,24.1,12.7,32C1833.4,393.4,1844.7,397.3,1858.9,397.3z"/>
	
		<linearGradient id="SVGID_00000129187622491698566500000004336573320072918713_" gradientUnits="userSpaceOnUse" x1="2056.4194" y1="146.6454" x2="2056.4194" y2="434.28">
		<stop  offset="0" style="stop-color:#F2EDE6"/>
		<stop  offset="1" style="stop-color:#1F1D1D"/>
	</linearGradient>
	<path style="fill:url(#SVGID_00000129187622491698566500000004336573320072918713_);" d="M2090,120v333.8h-67.2V120H2090z"/>
	
		<linearGradient id="SVGID_00000178896231231516826370000005835377009175653014_" gradientUnits="userSpaceOnUse" x1="2265.6006" y1="141.2182" x2="2265.6006" y2="448.1939">
		<stop  offset="0" style="stop-color:#F2EDE6"/>
		<stop  offset="1" style="stop-color:#1F1D1D"/>
	</linearGradient>
	<path style="fill:url(#SVGID_00000178896231231516826370000005835377009175653014_);" d="M2148.4,453.5V120h67l112.1,239l-6.6,7.6
		V120h61.9v333.5h-67.7L2204,222.9l6.1-7.6v238.3H2148.4z"/>
	
		<linearGradient id="SVGID_00000063622231310480656630000011226214350090592671_" gradientUnits="userSpaceOnUse" x1="2542.1411" y1="146.0286" x2="2542.1411" y2="422.5246">
		<stop  offset="0" style="stop-color:#F2EDE6"/>
		<stop  offset="1" style="stop-color:#1F1D1D"/>
	</linearGradient>
	<path style="fill:url(#SVGID_00000063622231310480656630000011226214350090592671_);" d="M2428.5,177.6V120h227.3v57.6H2428.5z
		 M2508.9,453.8v-306h66.2v306H2508.9z"/>
</g>
</svg>
