<?xml version="1.0" encoding="utf-8"?>
<!-- Generator: Adobe Illustrator 23.0.5, SVG Export Plug-In . SVG Version: 6.00 Build 0)  -->
<svg version="1.1" id="Layer_1" xmlns="http://www.w3.org/2000/svg" xmlns:xlink="http://www.w3.org/1999/xlink" x="0px" y="0px"
	 viewBox="0 0 387.7 227" style="enable-background:new 0 0 387.7 227;" xml:space="preserve">
<style type="text/css">
	.st0{clip-path:url(#SVGID_2_);fill:#FFFFFF;}
</style>
<g>
	<defs>
		<rect id="SVGID_1_" x="4.3" width="379.1" height="227"/>
	</defs>
	<clipPath id="SVGID_2_">
		<use xlink:href="#SVGID_1_"  style="overflow:visible;"/>
	</clipPath>
	<path class="st0" d="M296.4-5.4c29.5,0,59,0,88.5,0c-16,10.8-33.6,19.7-47.7,32.6c-32.8,30-63.8,62.1-95.7,93.1
		c-15.5,15.1-31.5,29.8-47.3,44.8c0.7,0.7,1.4,1.4,2.1,2.1c63-49.1,125.9-98.2,188.9-147.2c0.8,0.5,1.6,1,2.5,1.4
		c0,18.3,0.2,36.6-0.2,54.8c-0.1,2.4-3.1,5.1-5.4,6.9c-55.4,43.3-111.6,85.5-165.8,130.2c-19.9,16.4-39.6,24.7-64.9,21.7
		c-10.4-1.2-21.1-0.2-31.7-0.2c-0.6-1.1-1.2-2.1-1.8-3.2c55.7-57.5,111.5-115,167.7-173.1c-2.5,1.4-4.6,2.4-6.5,3.7
		C202.2,114,126.9,168,56.9,229.1c-3,2.6-7.2,5.3-11,5.4c-14.7,0.6-29.5,0.4-44.2,0c-2.1-0.1-5.9-2.7-6.1-4.5
		c-0.9-7.9-0.7-15.1,5.8-21.9C65.6,141.2,129.3,73.9,193,6.6c3.5-3.7,6.3-7.9,9.4-11.9c22.1,0,44.2,0,66.3,0
		c-14.5,15.4-29,30.8-43.5,46.2c8.5-3.8,16-8.7,23.5-13.8C264.7,16.3,280.5,5.4,296.4-5.4z"/>
	<path class="st0" d="M158.2-5.4c-13,10.6-26.4,20.7-38.9,31.8C81.4,60.3,43.7,94.4,6.1,128.5c-3.1,2.8-5.6,6.2-8.3,9.3
		c-0.7-0.4-1.3-0.8-2-1.2c-0.1-2.9-0.4-5.8-0.4-8.7c0-31.3,0.3-62.5-0.2-93.8C-5,23-3.4,13.2,4.3,4.6c2.6-2.9,4.3-6.6,6.5-10
		c17.2,0,34.4,0,51.6,0c-11.2,16-22.5,32-33.7,48.1c0.6,0.5,1.3,0.9,1.9,1.4C47.9,29.3,65.3,14.5,82.6-0.3c1.5-1.3,2.5-3.3,3.7-5
		C110.3-5.4,134.2-5.4,158.2-5.4z"/>
	<path class="st0" d="M290.1,233.4c32.1-47.2,63.4-93.3,94.8-139.4c0.9,0.4,1.8,0.7,2.8,1.1c0,13.7,0.2,27.3-0.2,41
		c-0.1,2.3-2.4,4.8-4.1,6.9c-24.1,28.6-48.5,57-72.3,85.8C305.5,235.2,299.7,235.7,290.1,233.4z"/>
	<path class="st0" d="M389.1,187.9c-1.9,6-2.8,12.5-5.8,17.8c-4.2,7.4-10.7,13.5-15.1,20.8c-5.3,8.9-12.5,9.5-24.3,6.7
		c14.3-16.7,27.5-32.2,40.7-47.6C386.1,186.4,387.6,187.1,389.1,187.9z"/>
</g>
</svg>
