<svg id="Layer_1" data-name="Layer 1" xmlns="http://www.w3.org/2000/svg" viewBox="0 0 393 222"><defs><style>.cls-1{fill:#12151a;}</style></defs><title>center</title><path class="cls-1" d="M-.31,222.45l26-59.65S52.91,114.66,55.9,111L79,93.21,58,120.42,76,104.72H73.42L117,65.48s4.7-4.19,8.54-4.71L142.21,43A15.69,15.69,0,0,1,152,35.66l6.41-3.14,27.77-9.94,26.92-23h35l-9.83,8.38s-4.27,16.21-10.68,23.54c0,0,21.36-19.88,28.63-31.92h26.49l-2.14,1.57a5.4,5.4,0,0,0-2.56,4.19S275.5,10,272.94,9.49l-5.13,8.38L264,25.19,285.76-.45h14.95s-2.56,3.67-1.71,12c0,0,.43,7.85-6.83,6.28,0,0-11.54-1.57-12.82,9.41,0,0-6.84,6.28-9,14.13A15,15,0,0,1,262.26,54l-2.56,3.14,14.95-11s12.39-23,20.93-16.74l.86-2.62,12.81-7.32s3.85,0,5.13-10L317.8-.45H393s-45.29,91.57-53.41,105.69c0,0-12,6.81-20.08,27.21,0,0-3.85,7.85-11.11,8.9a61.65,61.65,0,0,0-27.34,27.2l-20.51,17.27,9.4-4.71s-24.78,34-39.73,41.34h-41l44.43-42.38,29.06-43.43S240.47,161.75,230.64,167c0,0-14.95,11-18.37,20.41a40.75,40.75,0,0,0-18.8,17.27L176,222.45H101.19s25.21-24.59,31.62-34.54l.42-5.75s-8.54,14.65-32.89,29.82L82.82,222.45H-.31Z"/></svg>