<?xml version="1.0" encoding="utf-8"?>
<!-- Generator: Adobe Illustrator 23.0.5, SVG Export Plug-In . SVG Version: 6.00 Build 0)  -->
<svg version="1.1" id="Layer_1" xmlns="http://www.w3.org/2000/svg" xmlns:xlink="http://www.w3.org/1999/xlink" x="0px" y="0px"
	 viewBox="0 0 454.8 415.6" style="enable-background:new 0 0 454.8 415.6;" xml:space="preserve">
<style type="text/css">
	.st0{fill:#FFFFFF;}
</style>
<title>left corner ele-01</title>
<path class="st0" d="M0,0.2c0.3-0.8,1-0.9,1.6-0.9h148.5c0.4,0,1-0.3,1.4,0.2s-0.1,1-0.5,1.6c-3.6,4.7-7.2,9.4-10.8,14.2
	c-0.3,0.2-0.4,0.5-0.4,0.8c2.4-1.8,4.6-3.6,6.9-5.3c4.5-3.3,8.8-7,13.4-10.2c1.2-0.9,2.6-1.3,4-1.3c2.8,0.1,5.6,0,8.4,0
	c0.3,0,0.8-0.2,0.9,0.3c0,0.4-0.1,0.7-0.3,1c-1.1,1.6-2.5,3.1-4,4.4c-2.1,1.9-4.1,4-5.9,6.2c-3.6,3.9-7,7.8-10.8,11.6
	c-3.3,3.2-6.3,7-9.4,10.3c-4.3,4.5-8.6,8.9-12.8,13.4c-7.3,7.6-14.5,15.3-21.6,23C98.8,80.2,88.9,90.9,79,101.6
	c-8.2,9.1-16.5,18.2-24.4,27.4c-3.7,4.5-6.7,9.5-9,14.9c-1.5,3.3-3.2,6.5-4.8,9.7c-1.3,2.4-3.1,4.6-5.3,6.3c-1.1,0.9-2.1,1.8-3,2.8
	c-9.2,9.2-18.7,17.9-28,27c-1.2,1-2.1,2.4-3.7,2.8c-0.5,0.1-0.8,0-0.7-0.5V1.4C0,1-0.1,0.6,0,0.2z"/>
<path class="st0" d="M400.7,17.4c1.9-1.4,3.8-2.6,5.6-4c5.8-4.1,11.8-8.1,17.6-12.3c1.8-1.4,4.1-2.1,6.4-2c5.3,0.2,10.6,0,16,0.1
	c0.4,0,0.9-0.2,1.1,0.2c0.2,0.5,0,1-0.3,1.4c-1.3,1.7-2.8,3.3-4.3,4.8c-2.1,2.3-4.2,4.5-6,6.9c0.7-0.6,1.4-1.4,2.1-2
	c3.3-3.4,7.1-6.6,10.6-9.8c1.2-1.1,2.9-1.7,4.5-1.4c0.9,0.1,0.8,0.5,0.5,1.1c-0.3,0.4-0.6,0.7-0.9,1.1c-6.5,6.5-12.8,12.9-19.4,19.3
	c-8.8,8.4-17.5,16.8-26.8,24.6c-4.2,3.7-8.1,7.8-11.7,12c-9.1,9.9-18,19.9-27,29.9c-2.9,3.3-6.3,6.1-10.1,8.2
	c-3.3,1.8-5.9,4.4-8.5,7c-5.6,5.3-11.5,10.3-17.3,15.4c-0.1,0.1-0.1,0.2-0.2,0.2c-0.4,0.3-0.9,0.6-1.4,0.2c-0.2-0.5-0.2-1.1,0.2-1.5
	c1.3-1.5,2.6-2.9,3.9-4.3c0.7-0.8,1.5-1.7,2.3-2.5c-0.3-0.3-0.4,0-0.6,0.1c-11.4,7.7-22.7,15.3-34,23c-4.9,3.3-9.9,6.5-14.7,10
	c-6.7,5-14,9.2-20.9,14l-1.9,1.3c-0.4,0.3-0.9,0.3-1.4,0c-0.4-0.4-0.1-0.8,0.1-1.3c0.5-1,1.2-1.7,2.1-2.3c1.4-0.7,2.1-2,3-3.1
	c10.4-11.8,20.8-23.7,31.2-35.6c0.9-1,1.4-2.4,2.3-3.3c-2.5,1-4.3,3-6.3,4.7c-1.8,1.5-3.5,3-5.3,4.5c-0.3,0.3-0.6,0.7-1.4,0.4
	c0.8-0.8,1.6-1.7,2.3-2.5c2-2.1,3.6-4.4,5.5-6.5c2-2.3,4.2-4.4,6.3-6.6c6.3-6.7,12.7-13,19.5-19.2c9.1-8.2,17-17.6,25.1-26.8
	c5.3-6,10.3-12.5,16.3-18c0.9-1,1.9-1.8,2.9-2.6c4.8-3.2,8.8-7.4,13.1-11.2c10.4-9,20.8-17.9,32-25.8c0.6-0.6,1.4-1,2.2-1
	c0.3,0,0.7-0.1,0.9,0.2s0,0.6-0.1,0.9c-0.5,0.9-1.2,1.6-2.1,2.2c-4.4,3.9-8.9,7.7-13.2,11.5C400.6,17.3,400.6,17.4,400.7,17.4z"/>
<path class="st0" d="M52.1,214.4c-1.7,1.4-3.2,2.6-4.7,3.9c-8.2,6.8-16.2,14.1-23.9,21.6c-7.1,6.8-13.8,13.8-20.8,20.6
	c-0.5,0.5-0.9,1.3-1.7,1.6s-0.9,0.3-0.9-0.6v-20.3c0-0.5,0.3-1,0.7-1.3c8.3-8.2,16.8-16.5,25.3-24.4c1.7-1.6,3-3.6,5-5
	c2.4-1.8,4.9-3.4,7.3-5.1c0.2-0.2,0.5-0.4,0.8-0.1s-0.1,0.6-0.3,0.8c-2.8,4.2-6.7,7.5-10.2,11c-2.9,3-6,6-8.8,9
	c1.4-1.1,2.7-2.2,4.2-3.3c3.8-3,7.4-6.4,11.4-9.1c5.1-3.6,9.9-7.5,14.7-11.4c8.7-6.9,17.4-13.6,25.7-20.9c12-10.5,24.7-20,36.9-30.4
	c1.6-1.4,3.2-2.6,4.8-3.9c0.2-0.1,0.3-0.3,0.5-0.4c0.4-0.2,0.9-0.4,1.4,0s0.1,0.9-0.2,1.4c-1.7,2.1-3.2,4.2-5,6.1
	c-3.1,3.3-5.9,6.9-9,10.3c-5.1,5.9-10.3,11.9-15.3,17.9c-4.5,5.4-9,11.1-13.2,16.7s-8.9,11-13,16.7c-0.1,0.2-0.4,0.3-0.3,0.8
	c1.1-1.3,2.2-2.4,3.2-3.5c3.4-4,7.4-7.5,10.8-11.5c4.3-4.9,9.3-9.2,14.1-13.6c0.4-0.4,0.9-0.7,1.3-0.9c0.3-0.2,0.8-0.1,1,0.2
	c0.2,0.3,0,0.6-0.2,0.9c-3,3.1-5.8,6.5-8.7,9.7c-10.1,11.6-20.2,23.1-30.6,34.5c-7,7.6-14,15.2-21.5,22.4c-5,4.8-9.1,10.4-13.4,15.9
	c-6.4,7.9-12.7,16-19,24l-0.3,0.3c-0.3-0.3-0.2-0.7-0.2-1v-19.3c0-0.8,0.2-1.6,0.7-2.2c2.5-2.7,4.9-5.5,7.4-8.2
	c10.4-11.6,20.8-23.2,31.1-35c4.1-4.7,8.1-9.4,12.2-14C51.8,215.1,52.1,214.9,52.1,214.4z"/>
<path class="st0" d="M289.7-0.7c-2.8,4.5-6.7,8.2-11.3,10.8c-2.6,1.5-5.3,2.6-8.1,3.6c-3.4,1.2-6.5,3.2-9.1,5.8
	c-2.7,2.8-6.1,4.6-9.9,5.3c-7.4,1.6-14.8,3.2-22.3,4.8c-2.9,0.6-5,2.4-7,4.3c-4.7,4.6-9.9,8.7-15.3,12.4c-1,0.7-2.1,1.2-3.2,1.5
	c-0.9,0.2-1.1-0.3-0.8-0.9c0.3-0.7,0.7-1.4,1.3-2c1.5-1.7,2.9-3.4,4.5-5c2.1-2.1,3.3-4.8,5.4-6.8c5-4.7,9.9-9.5,14.8-14.2
	c1.1-1.1,2.3-2.2,3.6-3.3c2.4-2.2,5.3-3.4,8.1-4.9c6-3.2,12.2-6.2,17.9-9.9c1.5-1,3.2-1.5,4.9-1.5c8.3,0.1,16.8,0,25.1,0H289.7z"/>
<path class="st0" d="M188.2,128c-2.4,2.6-4.3,5.5-6.9,7.8c-0.1,0.1-0.3,0.2-0.4,0.4c-6.2,7.8-12.8,15-19.4,22.4
	c-0.6,0.7-1.1,1.5-1.7,2.2c-1,1.3-2.1,2.4-3.4,3.3c-1.7,1.4-3.2,3-4.5,4.8c-4.9,7-11,12.9-16.9,18.9c-4.3,4.3-8.8,8.3-13.2,12.5
	c-0.2,0.2-0.6,0.7-0.9,0.4s0.1-0.7,0.4-0.9c5.2-6.8,10.9-13.2,16.5-19.7c7.9-9.2,15.8-18.4,23.9-27.3c0.7-0.8,1.3-1.7,1.8-2.6
	c0.9-1.4,2.1-2.4,3.6-3.1c0.2-0.1,0.4-0.2,0.4-0.3c0.7-2.1,2.7-2.8,4.1-4.2c4.8-4.9,9.6-9.8,14.9-14.3
	C186.9,127.8,187.6,127.7,188.2,128z"/>
</svg>
